<?xml version="1.0" standalone="no"?>
<!DOCTYPE svg PUBLIC "-//W3C//DTD SVG 20010904//EN" "http://www.w3.org/TR/2001/REC-SVG-20010904/DTD/svg10.dtd">
<!-- Created using Krita: https://krita.org -->
<svg xmlns="http://www.w3.org/2000/svg" 
    xmlns:xlink="http://www.w3.org/1999/xlink"
    xmlns:krita="http://krita.org/namespaces/svg/krita"
    xmlns:sodipodi="http://sodipodi.sourceforge.net/DTD/sodipodi-0.dtd"
    width="386pt"
    height="396.5pt"
    viewBox="0 0 386 396.5">
<defs/>
<path id="shape0" transform="translate(26.1093741715083, 15.8437495223985)" fill="#000000" fill-rule="evenodd" stroke="#000000" stroke-width="1.49999999999988" stroke-linecap="square" stroke-linejoin="bevel" d="M329.391 268.625L338.953 58.8437L174.016 0L0 54.9844L12.8906 263.812L161.203 355.781C160.703 355.927 216.766 326.875 329.391 268.625Z" sodipodi:nodetypes="ccccccc"/><path id="shape01" transform="translate(249.187484666579, 262.218733618849)" fill="#080808" fill-rule="evenodd" stroke="#080808" stroke-width="1.49999999999988" stroke-linecap="square" stroke-linejoin="bevel" d="M7.5 42.2812L0 18.9375L43.0312 0L35.8125 27.5625C43.8125 28 34.375 32.9062 7.5 42.2812Z" sodipodi:nodetypes="ccccc"/><path id="shape02" transform="translate(310.499980893803, 188.343738410522)" fill="#080808" fill-rule="evenodd" stroke="#080808" stroke-width="1.49999999999988" stroke-linecap="square" stroke-linejoin="bevel" d="M26.625 0L0 3.9375L2.53125 44.1562L25.6875 16.4062C27.8125 26.7812 28.125 21.3125 26.625 0Z" sodipodi:nodetypes="ccccc"/><path id="shape03" transform="translate(83.7187498943849, 252.187499510733)" fill="#080808" fill-rule="evenodd" stroke="#080808" stroke-width="1.49999999999988" stroke-linecap="square" stroke-linejoin="bevel" d="M31.4062 43.0312L39.4687 20.3437L0 0L9.09375 29.25C-0.65625 24.6875 6.78125 29.2812 31.4062 43.0312Z" sodipodi:nodetypes="ccccc"/><path id="shape04" transform="translate(53.6249982984078, 187.312494056327)" fill="#080808" fill-rule="evenodd" stroke="#080808" stroke-width="1.49999999999988" stroke-linecap="square" stroke-linejoin="bevel" d="M19.3125 1.96875L0 0L2.8125 24L19.4687 43.875C20.8021 34.9375 20.75 20.9687 19.3125 1.96875Z" sodipodi:nodetypes="ccccc"/><path id="shape05" transform="translate(215.687486727963, 48.645543295927)" fill="#080808" fill-rule="evenodd" stroke="#080808" stroke-width="1.49999999999988" stroke-linecap="square" stroke-linejoin="bevel" d="M47.9375 9.7607L33.875 18.0107L0 3.29195L28.4687 1.97945C21.1354 -2.27055 27.625 0.323204 47.9375 9.7607Z" sodipodi:nodetypes="ccccc"/><path id="shape06" transform="translate(117.124996283469, 54.9374982567608)" fill="#080808" fill-rule="evenodd" stroke="#080808" stroke-width="1.49999999999988" stroke-linecap="square" stroke-linejoin="bevel" d="M10 15.6875L0 8.3125L25.75 0L45.25 2.0625C35.5833 9.1875 23.8333 13.7292 10 15.6875Z" sodipodi:nodetypes="ccccc"/><path id="shape07" transform="translate(54.1562483178828, 84.3124973675104)" fill="#aa4801" fill-rule="evenodd" stroke="#aa4801" stroke-width="1.49999999999988" stroke-linecap="square" stroke-linejoin="bevel" d="M0 0L134.906 59.9375L136.563 247.625C104.725 229.402 97.8404 227.444 66.0026 209.22C62.3883 207.152 62.7412 199.629 57.4961 179.801C81.2742 146.054 119.97 78.4627 112.5 74.187C112.693 73.7894 53.6299 104.781 22.3873 113.938C23.5912 126.922 4.43951 105.539 4.02314 95.0603C2.87383 66.1362 2.78278 59.6996 0 0Z" sodipodi:nodetypes="ccccccccc"/><path id="shape08" transform="translate(189.343749639453, 87.6953123308542)" fill="#b14b00" fill-rule="evenodd" stroke="#b14b00" stroke-width="1.49999999999988" stroke-linecap="square" stroke-linejoin="bevel" d="M0 56.5234L0.46875 246.242C39.3356 226.936 23.2336 238.88 62.1005 219.573C65.4214 217.923 67.8427 197.217 70.5224 182.193C43.2604 152.359 19.6668 74.0361 23.656 72.0545C23.9174 66.6878 51.7174 116.671 80.0803 126.117C113.042 140.283 149.287 95.5688 149.586 89.4384C151.867 42.6048 145.399 46.8336 147.68 0C146.06 0.182292 96.8333 19.0234 0 56.5234Z" sodipodi:nodetypes="ccccccccc"/><path id="shape09" transform="translate(54.0624999385656, 60.2084003755657)" fill="#be5b0a" fill-rule="evenodd" stroke="#be5b0a" stroke-width="1.49999999999988" stroke-linecap="square" stroke-linejoin="bevel" d="M134.961 84.6041L284.5 26.0728C247.905 13.1402 245.341 13.4263 208.746 0.493727C204.398 -0.99197 203.804 1.45071 184.909 0.40115C176.405 24.3033 141.4 69.6337 135.375 67.4791C131.105 68.9015 109.983 24.6597 96.0929 4.72585C70.0523 4.11769 60.2852 3.28592 56.6607 4.49328C16.6176 17.8323 40.0432 10.9213 0 24.2603C0.973958 24.9895 45.9609 45.1041 134.961 84.6041Z" sodipodi:nodetypes="ccccccccc"/><path id="shape010" transform="translate(22.7031236358205, 68.4609332929292)" fill="#131313" fill-rule="evenodd" stroke="#131313" stroke-width="1.49999999999988" stroke-linecap="square" stroke-linejoin="bevel" d="M0 0L12.5859 212.782L167.203 306.508L166.789 266.789L166.765 261.797L40.2969 189.539L32.0156 16.5625L28.0625 12.2187C27.7344 13.0833 18.5833 8.66667 0 0Z" sodipodi:nodetypes="ccccccccc"/><path id="shape011" transform="translate(50.1249999033004, 81.1718748434056)" fill="#0e0e0e" fill-rule="evenodd" stroke="#0e0e0e" stroke-width="1.49999999999988" stroke-linecap="square" stroke-linejoin="bevel" d="M140 254.734L9.51563 178.719L0 0L4.48437 3.28125L13.2344 176.547L140.562 249.906C140.219 250.219 140.031 251.828 140 254.734Z" sodipodi:nodetypes="ccccccc"/><path id="shape012" transform="translate(66.7617186283109, 109.76197583935)" fill="#131313" fill-rule="evenodd" stroke="#131313" stroke-width="1.49999999999988" stroke-linecap="square" stroke-linejoin="bevel" d="M0 1.55052L6.57812 137.004L100.555 190.027L104.992 188.535L103.531 45.5505L4.5625 0.050524C4.3698 -0.16432 3.08333 0.300524 0 1.55052Z" sodipodi:nodetypes="ccccccc"/><path id="shape1" transform="translate(67.4374977520726, 109.68749650548)" fill="#0e0e0e" fill-rule="evenodd" stroke="#0e0e0e" stroke-width="1.49999999999988" stroke-linecap="square" stroke-linejoin="bevel" d="M104.187 188.453L100.187 189.875L99.3437 47.2266L0 1.75L3.53125 0L102.906 45.5859C102.823 45.5807 103.25 93.2031 104.187 188.453Z" sodipodi:nodetypes="ccccccc"/><path id="shape013" transform="translate(189.621087727883, 72.749999859684)" fill="#171717" fill-rule="evenodd" stroke="#171717" stroke-width="1.49999999999988" stroke-linecap="square" stroke-linejoin="bevel" d="M179.66 0L150.621 12.4687L146.168 14.9531L137.012 189.914L0.699218 257.563L0.675781 264.562L0 302.371L167.168 213.023C167.278 212.789 171.442 141.781 179.66 0Z" sodipodi:nodetypes="ccccccccc"/><path id="shape11" transform="translate(189.906250005952, 84.6015623486634)" fill="#0e0e0e" fill-rule="evenodd" stroke="#0e0e0e" stroke-width="1.49999999999988" stroke-linecap="square" stroke-linejoin="bevel" d="M150.094 0L140.719 179.094L0 250.992L0.0937496 246.086L136.469 177.898L145.648 3.10938C145.695 3.57813 147.177 2.54167 150.094 0Z" sodipodi:nodetypes="ccccccc"/><path id="shape014" transform="translate(208.249987185674, 112.749266993179)" fill="#171717" fill-rule="evenodd" stroke="#171717" stroke-width="1.49999999999988" stroke-linecap="square" stroke-linejoin="bevel" d="M113.062 2.02416L107.523 138.009L4.03125 188.969L0 187.001L0.53125 44.032C36.6875 29.3549 72.8438 14.6778 109 0.000726068C108.958 -0.0253156 110.312 0.649164 113.062 2.02416Z" sodipodi:nodetypes="ccccccc"/><path id="shape12" transform="translate(208.312493406693, 112.734371432546)" fill="#0e0e0e" fill-rule="evenodd" stroke="#0e0e0e" stroke-width="1.49999999999988" stroke-linecap="square" stroke-linejoin="bevel" d="M112.992 1.80469L109.031 0L0.65625 43.7812L0 186.656L3.42187 188.766L4.17187 45.0937C4.34375 45.3594 40.6172 30.9297 112.992 1.80469Z" sodipodi:nodetypes="ccccccc"/><path id="shape015" transform="translate(22.1874992987536, 13.7812495627017)" fill="#1a1a1a" fill-rule="evenodd" stroke="#1a1a1a" stroke-width="1.49999999999988" stroke-linecap="square" stroke-linejoin="bevel" d="M0 54.8437L178.063 0L347.484 58.5625L317.594 70.5312L313.063 74L176.063 24.0937L33.0391 71.2734L28.6249 67C28.5208 67.6458 18.9167 63.5104 0 54.8437Z" sodipodi:nodetypes="ccccccccc"/><path id="shape13" transform="translate(50.5624983955754, 34.1249989611672)" fill="#0e0e0e" fill-rule="evenodd" stroke="#0e0e0e" stroke-width="1.49999999999988" stroke-linecap="square" stroke-linejoin="bevel" d="M0 47.5391L148.031 0L289.453 50.6641L284.469 53.9453L147.836 3.74219L4.14844 50.9844C4.00781 51.0625 2.625 49.9141 0 47.5391Z" sodipodi:nodetypes="ccccccc"/><path id="shape016" transform="translate(87.9071333859259, 44.7187472510798)" fill="#1a1a1a" fill-rule="evenodd" stroke="#1a1a1a" stroke-width="1.49999999999988" stroke-linecap="square" stroke-linejoin="bevel" d="M0.155361 35.8437L110.062 0L211.468 37.75L211.468 43.25L101.406 84.6875L0.0928607 41.6562C0.013434 41.6679 -0.0946388 40.0937 0.155361 35.8437Z" sodipodi:nodetypes="ccccccc"/><path id="shape14" transform="translate(87.7552502496444, 80.8124950272968)" fill="#0e0e0e" fill-rule="evenodd" stroke="#0e0e0e" stroke-width="1.49999999999988" stroke-linecap="square" stroke-linejoin="bevel" d="M0.0181818 0L101.557 44.0625L211.463 1.5L211.37 7.03125L101.542 48.5156L0.627557 5.90625C0.137973 6.05208 -0.0651515 4.08333 0.0181818 0Z" sodipodi:nodetypes="ccccccc"/>
</svg>
